{"title":"Mitt Afrika aka Out of Africa.DVDRip.XViD.Swe_Sub.avi","uid":5487957,"size":1479264846,"categoryP":"video","categoryS":"movies","magnet":"?xt=urn:btih:932b1892056d55e1af038bf0b3e3795f18c52cc8&amp;dn=Mitt+Afrika+aka+Out+of+Africa.DVDRip.XViD.Swe_Sub.avi&amp;tr=udp%3A%2F%2Ftracker.openbittorrent.com%3A80&amp;tr=udp%3A%2F%2Fopen.demonii.com%3A1337&amp;tr=udp%3A%2F%2Ftracker.coppersurfer.tk%3A6969&amp;tr=udp%3A%2F%2Fexodus.desync.com%3A6969","seeders":2,"leechers":0,"uploader":"Zen_Bud","files":-1,"time":1270830803,"description":"General\nComplete name                    : Mitt Afrika.avi\nFormat                           : AVI\nFormat/Info                      : Audio Video Interleave\nFile size                        : 1.38 GiB\nDuration                         : 2h 34mn\nOverall bit rate                 : 1 278 Kbps\n\nVideo\nID                               : 0\nFormat                           : MPEG-4 Visual\nCodec ID/Hint                    : XviD\nDuration                         : 2h 34mn\nBit rate                         : 1 137 Kbps\nWidth                            : 720 pixels\nHeight                           : 552 pixels\nDisplay aspect ratio             : 1.855\nFrame rate                       : 25.000 fps\nResolution                       : 8 bits\nColorimetry                      : 4:2:0\nScan type                        : Progressive\nBits/(Pixel*Frame)               : 0.114\nStream size                      : 1.23 GiB (89%)\nWriting library                  : XviD 1.1.2 (UTC 2006-11-01)\n\nAudio\nID                               : 1\nFormat                           : MPEG Audio\nFormat version                   : Version 1\nFormat profile                   : Layer 3\nMode                             : Joint stereo\nCodec ID                         : 55\nCodec ID/Hint                    : MP3\nDuration                         : 2h 34mn\nBit rate mode                    : Constant\nBit rate                         : 128 Kbps\nChannel(s)                       : 2 channels\nSampling rate                    : 48.0 KHz\nStream size                      : 141 MiB (10%)\nAlignment                        : Split accross interleaves\nInterleave, duration             : 24 ms (0.60 video frame)\nInterleave, preload duration     : 428 ms\nWriting library                  : LAME3.98\n\n","torrent":{"xt":"urn:btih:932b1892056d55e1af038bf0b3e3795f18c52cc8","amp;dn":"Mitt+Afrika+aka+Out+of+Africa.DVDRip.XViD.Swe_Sub.avi","amp;tr":["udp%3A%2F%2Ftracker.openbittorrent.com%3A80","udp%3A%2F%2Fopen.demonii.com%3A1337","udp%3A%2F%2Ftracker.coppersurfer.tk%3A6969","udp%3A%2F%2Fexodus.desync.com%3A6969"],"infoHash":"932b1892056d55e1af038bf0b3e3795f18c52cc8","infoHashBuffer":{"type":"Buffer","data":[147,43,24,146,5,109,85,225,175,3,139,240,179,227,121,95,24,197,44,200]},"announce":[],"urlList":[]}}